<svg id="Layer_1" data-name="Layer 1" xmlns="http://www.w3.org/2000/svg" viewBox="0 0 240 240"><defs><style>.cls-1{fill:#fecf16;}</style></defs><path d="M63.39,181.5q0-6.52,0-13.05a1.62,1.62,0,0,0-.28-1.1c-3.17-2.69-4.61-6.48-6.33-10.06-4.06-8.49-8-17-12-25.57L36.48,114c-1.54-3.29-3.39-6.47-4.5-9.9a9.56,9.56,0,0,1,1.18-8.48,9.22,9.22,0,0,1,3.73-3.4C47.72,87.08,58.51,81.9,69.32,76.78Q80.68,71.4,92.05,66.07,103.92,60.52,115.79,55c6.36-3,12.72-5.93,19.1-8.84,3.08-1.4,9.65-.49,11.73,3.76,2.57,5.26,5.33,10.44,7.88,15.71,2.76,5.71,5.38,11.48,8.05,17.23q5.13,11.06,10.26,22.14c.67,1.44,1.33,2.9,2.1,4.29a1.66,1.66,0,0,0,1.13.7c2.33.29,4.69.34,7,.76a9.55,9.55,0,0,1,7.46,9.3c.06,18.3.2,36.61.26,54.91,0,3.51-.11,7-.28,10.53-.2,4.19-4.74,8.43-8.88,8.45-5,0-9.91.09-14.87.1q-34.41.11-68.82.2c-8,0-16,.08-24,.21-3.47.05-6-1.66-8.18-4a8.86,8.86,0,0,1-2.18-6.4V181.5Zm123.5-36.17H67.28v1.38c0,12.36,0,24.71,0,37.07a6.75,6.75,0,0,0,6.43,6.74c5.79-.09,11.59,0,17.39,0h89.48a6,6,0,0,0,5.93-4.76,29.12,29.12,0,0,0,.41-5.11q0-17,0-34Zm-119.7-20H187c-.16-2.21-.14-4.37-.49-6.46a5.89,5.89,0,0,0-4.94-4.42c-7.19-.11-14.37-.29-21.56-.29q-36.33,0-72.66.18c-4.64,0-9.27.06-13.91.11a5.89,5.89,0,0,0-5.95,4.94C67.23,121.26,67.29,123.23,67.19,125.29Zm69.27-32.85c-2.12,1-4.14,2.06-6.19,3s-2.05.89-1.07,2.87c.1.21.24.42.32.64.33.93.87.93,1.68.54q3.17-1.55,6.39-2.95c.27-.12.68.1,1,.17-.14.29-.21.7-.44.85-.94.58-1.92,1.12-2.92,1.61-1.51.74-3,1.43-4.66,2.18,1.32,1.65,2.84,2.45,4.64,1.83,2.48-.85,4.86-2,7.28-3,.75-.31.66-.88.39-1.49-.53-1.24-1-2.48-1.61-3.85,1.34-.66,2.58-1.28,3.83-1.87.64-.31.88-.69.53-1.41q-1.6-3.39-3.14-6.84c-.32-.74-.75-.81-1.4-.49-1.89.93-3.79,1.86-5.7,2.77a1,1,0,0,0-.57,1.62C135.41,89.82,135.87,91,136.46,92.44Zm9-15.78-.18.24a7.23,7.23,0,0,0-1.16.24c-1.84.74-3.7,1.44-5.49,2.28-2.52,1.18-2.59,1.66-1,4,.36.53.68.68,1.27.38.84-.45,1.74-.78,2.58-1.24s1.52-.35,1.94.64.86,1.71,1.25,2.58a1,1,0,0,0,1.61.59c1.31-.59,2.61-1.2,3.94-1.72.94-.37,1.14-1,.68-1.77a37.3,37.3,0,0,0-2.79-4.58A9,9,0,0,0,145.43,76.66Zm8.31,13.92c-2.56,1.19-5.05,2.33-7.53,3.49A15.1,15.1,0,0,0,144,95.23a1.33,1.33,0,0,0-.43,1.16,30.49,30.49,0,0,0,1.35,2.92c2.61-1.33,5.08-2.5,7.46-3.85A3.56,3.56,0,0,0,153.74,90.58Zm-28.6-1.73c.34.15.7.46,1.06.46a3.67,3.67,0,0,0,1.36-.41c2.18-1,4.38-1.88,6.51-2.94,2.86-1.43,2.57-.69,1.26-3.62-.44-1-1-1.09-1.86-.63-2,1-4,2-6,3C125.92,85.49,125.52,87,125.14,88.85Zm7.57-.74c-2,1-3.85,1.94-5.72,2.9-.23.12-.59.43-.56.53.4,1.1.84,2.18,1.33,3.25,0,.07.51,0,.75-.1,1.12-.51,2.24-1,3.34-1.57,2.91-1.44,3-1.75,1.25-4.55A4.58,4.58,0,0,0,132.71,88.11Zm20.75.37a13.87,13.87,0,0,0-1.77-2.75c-.24-.23-1.28.3-1.92.55s-1.14.56-1.71.84c-2.38,1.19-2.38,1.19-1.18,3.58,0,.07.05.18.1.21.37.17.83.55,1.11.45,1.49-.52,3-1.12,4.4-1.78C152.84,89.42,153.05,89,153.46,88.48Z"/><path class="cls-1" d="M124.23,167.27V175c-.44,0-.86.06-1.28.06q-25,0-50.1,0c-.91,0-1.18-.26-1.15-1.15,0-1.83.06-3.68,0-5.51,0-1,.34-1.21,1.25-1.2,8.11,0,16.22,0,24.33,0l25.9,0C123.48,167.2,123.79,167.24,124.23,167.27Z"/><path class="cls-1" d="M107.06,154.14v7.44c-.35,0-.66.06-1,.06H73.26c-1.54,0-1.54,0-1.55-1.57,0-2,0-4,0-5.94Z"/><path class="cls-1" d="M138.9,154.15v7.39H112.22v-7.39Z"/><rect class="cls-1" x="68.07" y="127.25" width="118.82" height="15.73"/></svg>