<svg id="Layer_1" data-name="Layer 1" xmlns="http://www.w3.org/2000/svg" viewBox="0 0 240 240"><defs><style>.cls-1{fill:#fecf16;}.cls-2{fill:#fff;}</style></defs><path class="cls-1" d="M145.88,152.47s-36.49,15.68-37.26,15.68-24.78,8.71-24.78,8.71l-8.38-8.71L72,164l66.67-15.39,4,2.9"/><path class="cls-1" d="M61.1,149.76l7.74,14.16,60-9.72s3.68-5.41,3.1-5.6S61.1,149.76,61.1,149.76Z"/><rect class="cls-1" x="41.74" y="91.23" width="108.66" height="60.93"/><path d="M48.65,155.24h-10V88.34h4c12.07,0,24.14.06,36.21-.07a11.87,11.87,0,0,0,5.55-1.52c14.34-8.22,28.54-16.68,42.94-24.8a11.43,11.43,0,0,1,7.31-1c8.75,1.76,17.52,3.65,26.07,6.2,5.53,1.65,10.22.69,14.93-2,1-.55,2-1.08,3.44-1.89l14.82,31.68c-4.71,2.08-9.47,3.81-13.88,6.19-14.15,7.63-29.83,8.85-45.26,11.2-6.13.94-12.29,1.76-18.43,2.69-4.24.64-7-1.88-6.55-6.18.54-5,4-7.56,8.33-9,7.19-2.38,14.42-4.6,21.63-6.9,1.15-.37,2.29-.81,4.08-1.44-.92-1.5-1.37-3.24-2.41-3.75-4.26-2.11-8.43-4.8-13.68-3-3.58,1.23-7.31,2-11,3l.09,1.19c7.85,0,15.7,0,23.55,0,.33,0,.65.68,1.71,1.84-4.13.84-7.65,2.14-11.18,2.16-23.77.18-47.53.13-71.3,0-2.52,0-3.93.4-4.81,3.15-1.74,5.44-6.24,8.12-11.65,9.7,0,10.06,0,20,.07,30a3.18,3.18,0,0,0,1.58,2.44c6.06,1.87,9.47,6.1,11.16,12.18H80.25c16.3,0,32.6,0,48.9,0,2.33,0,3.79-.24,4.59-2.95a12.79,12.79,0,0,1,8.63-8.65c2.63-.83,3.06-2.14,3-4.53-.13-7.2,0-14.4,0-21.86l13.34-2.1,15.72,40.36L70.17,191.15c-2.11-5.33-4.3-10.41-6.1-15.63-.87-2.51-2.06-3.34-4.6-2.69-2.26.58-4.6.89-7.24,1.38C51.05,168,49.91,161.91,48.65,155.24ZM68,171.37l-.19,1.36c7-.31,13,1.54,16.81,7.58l54.29-21.1-.23-.76ZM54.29,155.46c7,1.72,9.47,3.42,13.37,8.92a4.69,4.69,0,0,0,3.87,1.33c13.32-2.28,26.6-4.74,39.89-7.18,4.64-.85,9.25-1.77,13.88-2.66l-.11-.41Zm102-37.84-.67.19q2,10.56,3.92,21.13l1.1.27c.79-1.47,2.57-3.25,2.22-4.34C160.92,129,158.49,123.35,156.25,117.62Zm-5.32,1.8h-.53v20.34l3.87-1.91C153.13,131.54,152,125.48,150.93,119.42Z"/><path d="M219.26,83.32q-7.72-16.3-15.44-32.6c-1-2.08-2.29-2.27-4.21-1.34q-8.54,4.14-17.14,8.13c-2,.92-2.52,2.06-1.54,4.1,5.15,10.73,10.22,21.5,15.31,32.26.9,1.89,2.06,2.55,4.14,1.52,5.79-2.84,11.66-5.51,17.45-8.33a10.8,10.8,0,0,0,2.22-1.9C219.65,84.23,219.47,83.77,219.26,83.32Z"/><circle class="cls-2" cx="194.91" cy="58.34" r="2.37"/></svg>