<svg id="Layer_1" data-name="Layer 1" xmlns="http://www.w3.org/2000/svg" xmlns:xlink="http://www.w3.org/1999/xlink" viewBox="0 0 240 240"><defs><style>.cls-1{fill:none;}.cls-2{clip-path:url(#clip-path);}.cls-3{font-size:31.82px;fill:#231f20;font-family:LondrinaSolid-Regular, Londrina Solid;}.cls-4{fill:#fff;}.cls-5{fill:#fecf16;}</style><clipPath id="clip-path"><rect class="cls-1" width="240" height="240"/></clipPath></defs><g class="cls-2"><text class="cls-3" transform="translate(80.51 60.84)">ORDER<tspan x="-25.52" y="29.06">DELIVERED</tspan></text><path d="M277.16,120.68a2.11,2.11,0,0,0-3-.38l-23.29,17.57a18.51,18.51,0,0,0-2.95,2.78,18.9,18.9,0,0,0-3,4.59l-3.54,7.84A30.31,30.31,0,0,1,231.88,165l-30.66,22.83a4.87,4.87,0,0,1-3.67.93,4.57,4.57,0,0,1-3-2,5.32,5.32,0,0,1,1.31-7.2L212,167.48a2.06,2.06,0,0,0,.51-2.78s0-.12-.09-.17a2.06,2.06,0,0,0-2.82-.46.15.15,0,0,0-.12,0l-29.66,22.07a4.64,4.64,0,0,1-3.66.93,4.55,4.55,0,0,1-3-2,5.33,5.33,0,0,1,1.3-7.2l29.66-22.07.08-.09a2.09,2.09,0,1,0-2.48-3.37l-.09,0-.08.09-37.95,28.22a4.83,4.83,0,0,1-3.67.93,4.57,4.57,0,0,1-3-2,5.41,5.41,0,0,1,1.35-7.21l37.87-28.18.08-.08.21-.13a2.12,2.12,0,0,0,.42-2.94,2,2,0,0,0-1.73-.85,2.72,2.72,0,0,0-1.22.38L172.7,156.53l-12.55,9.35a4.53,4.53,0,0,1-3.62.89,4.45,4.45,0,0,1-3-2,5.34,5.34,0,0,1,1.3-7.21l40.23-30,1.22-.88a2.09,2.09,0,0,0,.42-3,0,0,0,0,0,0,0,2.18,2.18,0,0,0-2.91-.42L187,128.43h0l-2.49,1.86a4.69,4.69,0,0,1-3.49,1,4.27,4.27,0,0,1-2.66-1.85l-1.17-1.77a3.31,3.31,0,0,1,.5-4.38l10.19-7.59c5-3.74,9.52-5.51,14.16-5.6l13.14-.25,9.94-.17a8.74,8.74,0,0,0,5-1.81l6-4.47A93.42,93.42,0,0,0,246.92,94L268.4,72.41a2.09,2.09,0,0,0,0-3,2.16,2.16,0,0,0-3,0L255.09,79.78,244,91a97.18,97.18,0,0,1-10.45,9.06l-6,4.46a4.6,4.6,0,0,1-2.61,1l-4,.08-19,.34c-5.47.08-10.91,2.23-16.59,6.44l-7.71,5.73H44.66a3,3,0,0,0-2.95,3v26.33a2.56,2.56,0,0,0,.17.84,2.79,2.79,0,0,0-.17.84v26.33a2.56,2.56,0,0,0,.17.84,2.85,2.85,0,0,0-.17.84v26.33a2.94,2.94,0,0,0,2.95,2.95h147.5a2.94,2.94,0,0,0,3-2.95v-11a7.91,7.91,0,0,0,1.73.47,6.42,6.42,0,0,0,1.51.12,9,9,0,0,0,5.35-1.76l30.71-22.88a34.61,34.61,0,0,0,10.87-13.52l3.53-7.83a14.49,14.49,0,0,1,4.59-5.69l23.34-17.65A2.09,2.09,0,0,0,277.16,120.68Z"/><path class="cls-4" d="M118.41,160.78c-5.77,0-10.57-4.54-11.5-10.48h23C129,156.24,124.22,160.78,118.41,160.78Z"/><path class="cls-4" d="M118.41,132.77c-5.77,0-10.57-4.55-11.5-10.48h23C129,128.22,124.22,132.77,118.41,132.77Z"/><path class="cls-5" d="M45.92,178.31H102.7c1,8.29,7.62,14.7,15.71,14.7s14.74-6.41,15.75-14.7h18a8.7,8.7,0,0,0,8.67,7.66,8.88,8.88,0,0,0,5.39-1.85l2-1.48a8.88,8.88,0,0,0,1.51,4.85,8.75,8.75,0,0,0,5.77,3.79,9.75,9.75,0,0,0,1.52.13,9,9,0,0,0,5.35-1.82l7.2-5.34a9.54,9.54,0,0,0,1.35,4.59V202.1h-145Z"/><path d="M118.41,188.79c-5.77,0-10.57-4.54-11.5-10.48h23C129,184.25,124.22,188.79,118.41,188.79Z"/><path class="cls-5" d="M45.92,150.3H102.7c1,8.29,7.62,14.7,15.71,14.7s14.74-6.41,15.75-14.7h23.38l-5.22,3.91A9.6,9.6,0,0,0,150,167.14a8.46,8.46,0,0,0,4.3,3.37,9.35,9.35,0,0,0-1.94,3.58H45.92Z"/><path class="cls-5" d="M45.92,122.29H102.7c1,8.29,7.62,14.7,15.71,14.7s14.74-6.41,15.75-14.7h39a7.65,7.65,0,0,0,.46,7.75l1.18,1.72a8.5,8.5,0,0,0,3.54,3.08l-15.12,11.24H45.92Z"/><path class="cls-4" d="M118.41,188.79c-5.77,0-10.57-4.54-11.5-10.48h23C129,184.25,124.22,188.79,118.41,188.79Z"/></g></svg>